<?xml version="1.0" standalone="no"?>
<!DOCTYPE svg PUBLIC "-//W3C//DTD SVG 20010904//EN"
 "http://www.w3.org/TR/2001/REC-SVG-20010904/DTD/svg10.dtd">
<svg version="1.0" xmlns="http://www.w3.org/2000/svg"
 width="1280.000000pt" height="1280.000000pt" viewBox="0 0 1280.000000 1280.000000"
 preserveAspectRatio="xMidYMid meet">
<metadata>
Created by potrace 1.14, written by Peter Selinger 2001-2017
</metadata>
<g transform="translate(0.000000,1280.000000) scale(0.100000,-0.100000)"
fill="#000000" stroke="none">
<path d="M5998 12795 c-2 -1 -37 -5 -78 -8 -651 -53 -1355 -301 -1885 -665
-433 -298 -759 -664 -959 -1075 -26 -55 -63 -139 -82 -188 -59 -155 -108 -343
-129 -494 -4 -22 -8 -51 -10 -65 -21 -142 -21 -516 0 -640 2 -14 7 -45 10 -70
20 -153 78 -393 141 -589 113 -346 332 -789 571 -1158 12 -18 -5 -13 -114 33
-70 30 -195 82 -278 116 -82 33 -159 64 -170 69 -56 25 -341 124 -443 153
-191 56 -305 72 -370 52 -77 -23 -162 -144 -188 -269 -14 -71 -12 -253 5 -337
56 -273 189 -600 390 -955 13 -22 37 -65 54 -95 41 -72 218 -349 271 -423 76
-107 289 -392 301 -402 6 -5 31 -35 56 -65 105 -131 271 -304 370 -385 58 -48
163 -118 192 -128 6 -2 0 -51 -16 -132 -14 -72 -29 -146 -32 -165 -3 -19 -10
-60 -16 -90 -43 -241 -73 -600 -72 -875 0 -127 10 -346 18 -385 2 -8 6 -44 10
-80 54 -528 271 -1057 588 -1438 258 -311 638 -583 1036 -740 l73 -30 -208
-139 c-261 -174 -395 -276 -506 -387 -230 -230 -277 -428 -142 -593 79 -96
177 -142 315 -149 163 -7 321 36 566 157 373 183 825 536 1015 793 33 44 64
83 68 86 5 3 44 3 87 0 92 -7 413 -4 528 4 81 6 290 25 335 31 96 13 144 20
290 46 91 16 179 32 195 35 85 16 401 101 552 150 448 142 887 345 1243 575
165 106 343 234 419 301 21 18 55 48 77 66 115 98 285 275 395 410 145 178
345 512 337 564 -3 22 -32 37 -163 83 -785 278 -1197 563 -1404 974 -115 227
-166 476 -165 801 1 216 3 229 39 275 114 146 358 501 526 765 433 681 741
1323 864 1797 14 55 28 110 30 123 2 12 6 29 9 38 3 9 8 37 11 62 3 25 8 52
10 60 29 113 25 411 -9 555 -25 108 -92 244 -163 330 -63 76 -83 89 -143 87
-141 -3 -557 -257 -1202 -735 -65 -48 -120 -87 -123 -87 -2 0 4 24 15 53 21
56 77 244 86 286 2 14 7 37 10 51 3 14 10 43 16 65 5 22 11 49 13 60 1 11 10
61 19 111 34 193 50 374 50 584 0 120 -9 307 -18 360 -3 14 -7 48 -11 75 -3
28 -12 84 -20 125 -103 553 -352 1069 -729 1515 -51 60 -59 68 -152 166 -320
336 -732 623 -1152 802 -136 58 -339 127 -437 147 -33 7 -64 13 -70 15 -5 1
-26 5 -45 8 -19 4 -48 10 -65 13 -29 6 -431 14 -437 9z"/>
</g>
</svg>
